<?xml version="1.0" encoding="utf-8"?>
<?xml-stylesheet type="text/xsl" href="rss1.xsl"?>
<rss version="2.0" xmlns:atom="http://www.w3.org/2005/Atom" xmlns:content="http://purl.org/rss/1.0/modules/content/" xmlns:dc="http://purl.org/dc/elements/1.1/" xmlns:media="http://search.yahoo.com/mrss/">
<channel>
 <title>Getty</title>
 <link>http://www.gettyimg.com/</link>
 <atom:link href="http://www.gettyimg.com/" rel="self" type="application/rss+xml" />

 
                <item>
                <title><![CDATA[【MASTER &amp; MASTER RIP】MASTER - Redfoo - New Thang [MasterRip Clean AVC 1080p] - 2014]]></title>
                <link><![CDATA[https://sharemania.us/threads/redfoo-new-thang-masterrip-clean-avc-1080p-2014.222084/]]></link>
                <description><![CDATA[<article>
<blockquote class="messageText SelectQuoteContainer ugc baseHtml">
<div style="text-align: center"><img src="https://i.imgur.com/4VxSGSK.png" class="bbCodeImage LbImage" alt="[​IMG]" data-url="https://i.imgur.com/4VxSGSK.png" style=""><br>
<br>
<img src="https://i.imgur.com/P1DzdN8.png" class="bbCodeImage LbImage" alt="[​IMG]" data-url="https://i.imgur.com/P1DzdN8.png" style="">​</div><br>
<div class="ToggleTriggerAnchor bbCodeSpoilerContainer">
<button type="button" class="button bbCodeSpoilerButton ToggleTrigger Tooltip JsOnly" data-target="> .SpoilerTarget"><span>Spoiler: <span class="SpoilerTitle">MediaInfo</span></span></button>
<div class="SpoilerTarget bbCodeSpoilerText">
<div class="bbCodeBlock bbCodeCode">
<div class="type">Code:</div>
<pre>General
Complete name                  : Redfoo - New Thang [MasterRip Clean AVC 1080p] - 2014.mov
Format                         : MPEG-4
Format profile                 : QuickTime
Codec ID                       : qt   2005.03 (qt  )
File size                      : 973 MiB
Duration                       : 3 min 51 s
Overall bit rate               : 35.2 Mb/s
Frame rate                     : 23.976 FPS
Encoded date                   : 2014-08-28 19:08:25 UTC
Tagged date                    : 2014-08-28 19:08:53 UTC
Writing library                : Apple QuickTime
Media/UUID                     : D97337BA-45E1-4229-94C7-506194CD7E5D
Media/History/UUID             : DA22D72A-EAB4-4795-B93E-D2D7DABF2ACF

Video
ID                             : 1
Format                         : AVC
Format/Info                    : Advanced Video Codec
Format profile                 : Main@L4.1
Format settings                : 2 Ref Frames
Format settings, CABAC         : No
Format settings, Reference fra : 2 frames
Codec ID                       : avc1
Codec ID/Info                  : Advanced Video Coding
Duration                       : 3 min 51 s
Bit rate                       : 34.9 Mb/s
Width                          : 1 920 pixels
Clean aperture width           : 1 888 pixels
Height                         : 1 080 pixels
Clean aperture height          : 1 062 pixels
Display aspect ratio           : 16:9
Frame rate mode                : Constant
Frame rate                     : 23.976 (23976/1000) FPS
Color space                    : YUV
Chroma subsampling             : 4:2:0
Bit depth                      : 8 bits
Scan type                      : Progressive
Bits/(Pixel*Frame)             : 0.702
Stream size                    : 964 MiB (99%)
Language                       : English
Encoded date                   : 2014-08-28 19:08:25 UTC
Tagged date                    : 2014-08-28 19:08:53 UTC
Color range                    : Limited
Color primaries                : BT.709
Transfer characteristics       : BT.709
Matrix coefficients            : BT.709
Codec configuration box        : avcC

Audio
ID                             : 2
Format                         : AAC LC
Format/Info                    : Advanced Audio Codec Low Complexity
Codec ID                       : mp4a-40-2
Duration                       : 3 min 51 s
Source duration                : 3 min 51 s
Bit rate mode                  : Constant
Bit rate                       : 320 kb/s
Channel(s)                     : 2 channels
Channel layout                 : L R
Sampling rate                  : 48.0 kHz
Frame rate                     : 46.875 FPS (1024 SPF)
Compression mode               : Lossy
Stream size                    : 8.73 MiB (1%)
Source stream size             : 8.73 MiB (1%)
Language                       : English
Encoded date                   : 2014-08-28 19:08:25 UTC
Tagged date                    : 2014-08-28 19:08:53 UTC

Other
ID                             : 3
Type                           : Time code
Format                         : QuickTime TC
Duration                       : 3 min 51 s
Frame rate                     : 23.976 (23976/1000) FPS
Time code of first frame       : 01:00:12:08
Time code of last frame        : 01:04:03:14
Time code, stripped            : Yes
Language                       : English
Encoded date                   : 2014-08-28 19:08:25 UTC
Tagged date                    : 2014-08-28 19:08:53 UTC
</pre>
</div></div>
</div><br>
<div style="text-align: center"><b>DOWNLOAD LINK</b><br>
<img src="https://i.imgur.com/yRbU0vs.png" class="bbCodeImage LbImage" alt="[​IMG]" data-url="https://i.imgur.com/yRbU0vs.png" style=""><br>
<div class="bbCodeBlock bbCodeVfcHH HiddenContent">
<div class="attribution type">Hidden Content:</div>
<blockquote>You must either reply or click 'Like' to see the hidden information contained here.</blockquote>
</div></div>
<div class="messageTextEndMarker">&nbsp;</div>
</blockquote>
</article>]]></description>
                <author><![CDATA[ElFunadisimo]]></author>
                </item>

                </channel></rss>